{"title":"Comedy Nights with Kapil - Imran &amp; Kareena 24th Nov HQ 480p ","uid":9244520,"size":627583067,"categoryP":"video","categoryS":"hd___tv_shows","magnet":"?xt=urn:btih:eae83f47625377bc518e3ade93bf9acf4525bd72&amp;dn=Comedy+Nights+with+Kapil+-+Imran+%26amp%3B+Kareena+24th+Nov+HQ+480p+&amp;tr=udp%3A%2F%2Ftracker.openbittorrent.com%3A80&amp;tr=udp%3A%2F%2Fopen.demonii.com%3A1337&amp;tr=udp%3A%2F%2Ftracker.coppersurfer.tk%3A6969&amp;tr=udp%3A%2F%2Fexodus.desync.com%3A6969","seeders":1,"leechers":1,"uploader":"Palash995","files":1,"time":1385350654,"description":"\n\nThe episode starts with Kapil cracking jokes on ghosts and devils. Kapil then proceeds to insult his wife and father-in- law. Kapil's Dadi again touches upon the topic of Kapil and his wife not having a child. Later, Imran Khan and Kareena Kapoor join Kapil on the show, to promote their movie - Gori Tere Pyar Mein. Watch the episode and have a hearty laugh.\n\nRenowned, actor-comedian Kapil Sharma makes his debut as a TV show producer with his new show Comedy Nights With Kapil. He will be seen multiple roles of an actor, scriptwriter and producer in his production debut. Already famous for his amazing comic timing and his talent to dig humor out of any situation, he is ready present everyday life in a fresh ad unique way.\n\nScreenshots:-\n\n\nMedia Info:-\n\nGeneral\nComplete name : Comedy Nights with Kapil - Imran &amp; Kareena 24th Nov HQ 480p {DAKU RG} {GreatPalash}.mp4\nFormat : MPEG-4\nFormat profile : Base Media\nCodec ID : isom\nFile size : 599 MiB\nDuration : 1h 2mn\nOverall bit rate : 1 331 Kbps\nWriting application : Lavf54.63.104\n\nVideo\nID : 1\nFormat : AVC\nFormat/Info : Advanced Video Codec\nFormat profile : &lt;a class=&quot;__cf_email__&quot; href=&quot;/cdn-cgi/l/email-protection&quot; data-cfemail=&quot;6a270b03042a2659445a&quot;&gt;[email&amp;#160;protected]&lt;/a&gt;&lt;script cf-hash='f9e31' type=&quot;text/javascript&quot;&gt;\n/* &lt;![CDATA[ */!function(){try{var t=&quot;currentScript&quot;in document?document.currentScript:function(){for(var t=document.getElementsByTagName(&quot;script&quot;),e=t.length;e--;)if(t[e].getAttribute(&quot;cf-hash&quot;))return t[e]}();if(t&amp;&amp;t.previousSibling){var e,r,n,i,c=t.previousSibling,a=c.getAttribute(&quot;data-cfemail&quot;);if(a){for(e=&quot;&quot;,r=parseInt(a.substr(0,2),16),n=2;a.length-n;n+=2)i=parseInt(a.substr(n,2),16)^r,e+=String.fromCharCode(i);e=document.createTextNode(e),c.parentNode.replaceChild(e,c)}}}catch(u){}}();/* ]]&gt; */&lt;/script&gt;\nFormat settings, CABAC : Yes\nFormat settings, ReFrames : 3 frames\nCodec ID : avc1\nCodec ID/Info : Advanced Video Coding\nDuration : 1h 2mn\nBit rate : 1 072 Kbps\nWidth : 854 pixels\nHeight : 480 pixels\nDisplay aspect ratio : 16:9\nFrame rate mode : Constant\nFrame rate : 25.000 fps\nColor space : YUV\nChroma subsampling : 4:2:0\nBit depth : 8 bits\nScan type : Progressive\nBits/(Pixel*Frame) : 0.105\nStream size : 482 MiB (80%)\n\nAudio\nID : 2\nFormat : AAC\nFormat/Info : Advanced Audio Codec\nFormat profile : LC\nCodec ID : 40\nDuration : 1h 2mn\nBit rate mode : Constant\nBit rate : 254 Kbps\nChannel(s) : 2 channels\nChannel positions : Front: L R\nSampling rate : 44.1 KHz\nCompression mode : Lossy\nDelay relative to video : 40ms\nStream size : 114 MiB (19%)\n\n[IMG]http://imageshack.us/a/img89/4822/zka.gif[/IMG]\n\n[IMG]http://imageshack.us/a/img200/185/tj8.gif[/IMG]\n\n[IMG]http://imageshack.us/a/img593/9603/ua8.gif[/IMG]\n\n[IMG]http://imageshack.us/a/img707/5608/ysmp.png[/IMG][/b][/center]","torrent":{"xt":"urn:btih:eae83f47625377bc518e3ade93bf9acf4525bd72","amp;dn":"Comedy+Nights+with+Kapil+-+Imran+%26amp%3B+Kareena+24th+Nov+HQ+480p+","amp;tr":["udp%3A%2F%2Ftracker.openbittorrent.com%3A80","udp%3A%2F%2Fopen.demonii.com%3A1337","udp%3A%2F%2Ftracker.coppersurfer.tk%3A6969","udp%3A%2F%2Fexodus.desync.com%3A6969"],"infoHash":"eae83f47625377bc518e3ade93bf9acf4525bd72","infoHashBuffer":{"type":"Buffer","data":[234,232,63,71,98,83,119,188,81,142,58,222,147,191,154,207,69,37,189,114]},"announce":[],"urlList":[]}}